<svg xmlns="http://www.w3.org/2000/svg" width="40" height="40" viewBox="0 0 40 40">
    <g fill="none" fill-rule="evenodd">
        <path fill="#00C853" fill-rule="nonzero" d="M20 0C8.96 0 0 8.96 0 20s8.96 20 20 20 20-8.96 20-20S31.04 0 20 0zm2.82 32.18V36h-5.34v-3.86c-3.42-.72-6.32-2.92-6.54-6.8h3.92c.2 2.1 1.64 3.74 5.3 3.74 3.92 0 4.8-1.96 4.8-3.18 0-1.66-.88-3.22-5.34-4.28-4.96-1.2-8.36-3.24-8.36-7.34 0-3.44 2.78-5.68 6.22-6.42V4h5.34v3.9c3.72.9 5.58 3.72 5.7 6.78H24.6c-.1-2.22-1.28-3.74-4.44-3.74-3 0-4.8 1.36-4.8 3.28 0 1.68 1.3 2.78 5.34 3.82s8.36 2.78 8.36 7.82c-.02 3.66-2.76 5.66-6.24 6.32z"/>
        <path d="M-4-4h48v48H-4z"/>
    </g>
</svg>
